<svg xmlns="http://www.w3.org/2000/svg" version="1.1" xmlns:xlink="http://www.w3.org/1999/xlink" xmlns:svgjs="http://svgjs.dev/svgjs" width="1500" height="935" viewBox="0 0 1500 935"><g transform="matrix(1,0,0,1,-0.9090909090909918,0.3785425101214628)"><svg viewBox="0 0 396 247" data-background-color="#ffffff" preserveAspectRatio="xMidYMid meet" height="935" width="1500" xmlns="http://www.w3.org/2000/svg" xmlns:xlink="http://www.w3.org/1999/xlink"><g id="tight-bounds" transform="matrix(1,0,0,1,0.2400000000000091,-0.09999999999999432)"><svg viewBox="0 0 395.52 247.2" height="247.2" width="395.52"><g><svg></svg></g><g><svg viewBox="0 0 395.52 247.2" height="247.2" width="395.52"><g transform="matrix(1,0,0,1,80.73314169096209,47.215199999999996)"><svg viewBox="0 0 234.0537166180758 152.7696" height="152.7696" width="234.0537166180758"><g><svg viewBox="0 0 234.0537166180758 152.7696" height="152.7696" width="234.0537166180758"><g><svg viewBox="0 0 234.0537166180758 152.7696" height="152.7696" width="234.0537166180758"><g><svg viewBox="0 0 234.0537166180758 152.7696" height="152.7696" width="234.0537166180758"><g id="textblocktransform"><svg viewBox="0 0 234.0537166180758 152.7696" height="152.7696" width="234.0537166180758" id="textblock"><g><svg viewBox="0 0 234.0537166180758 152.7696" height="152.7696" width="234.0537166180758"><g transform="matrix(1,0,0,1,0,0)"><svg width="234.0537166180758" viewBox="1.7 -34.3 52.55 34.3" height="152.7696" data-palette-color="#336a86"><path d="M1.7 0L6.55-34.3 18.6-34.3Q22.3-34.3 24.58-32.33 26.85-30.35 26.85-27.05L26.85-27.05Q26.85-23.8 24.98-21.35 23.1-18.9 20.4-18L20.4-18 20.35-17.8Q22.6-17.05 23.95-15.08 25.3-13.1 25.3-10.3L25.3-10.3Q25.3-7.2 23.8-4.85 22.3-2.5 19.85-1.25 17.4 0 14.65 0L14.65 0 1.7 0ZM8.85-19.55L15.7-19.55Q17.6-19.55 19.05-20.45 20.5-21.35 21.3-22.8 22.1-24.25 22.1-25.9L22.1-25.9Q22.1-28.1 20.75-29.2 19.4-30.3 17-30.3L17-30.3 10.35-30.3 8.85-19.55ZM6.7-4L14.65-4Q17.15-4 18.95-5.7 20.75-7.4 20.75-10.3L20.75-10.3Q20.75-12.55 19.35-14.05 17.95-15.55 15.55-15.55L15.55-15.55 8.3-15.55 6.7-4ZM35.65 0L39.9-30.3 30.55-30.3 31.15-34.3 54.25-34.3 53.65-30.3 44.3-30.3 40.05 0 35.65 0Z" opacity="1" transform="matrix(1,0,0,1,0,0)" fill="#879a7e" class="wordmark-text-0" data-fill-palette-color="primary" id="text-0"></path></svg></g></svg></g></svg></g></svg></g></svg></g></svg></g></svg></g><g><path d="M240.627 0c68.262 0 123.6 55.338 123.6 123.6 0 68.262-55.338 123.6-123.6 123.6-30.402 0-58.24-10.976-79.768-29.183h11.147c19.26 14.022 42.974 22.294 68.621 22.295 64.458 0 116.712-52.254 116.711-116.712 0-64.458-52.254-116.712-116.711-116.712-25.647 0-49.361 8.272-68.621 22.295l-11.147 0c21.528-18.206 49.366-29.183 79.768-29.183z" fill="#879a7e" stroke="transparent" data-fill-palette-color="tertiary"></path></g></svg></g><defs></defs></svg><rect width="395.52" height="247.2" fill="none" stroke="none" visibility="hidden"></rect></g></svg></g></svg>